STARTFONT 2.1
COMMENT 
COMMENT Copyright (C) 2012, 2013 Uwe Waldmann
COMMENT 
COMMENT Permission is hereby granted, free of charge, to any person obtaining
COMMENT a copy of this font software and associated files (the "Software"),
COMMENT to deal in the Software without restriction, including without
COMMENT limitation the rights to use, copy, modify, merge, publish,
COMMENT distribute, embed, sublicense, and/or sell copies of the Software,
COMMENT and to permit persons to whom the Software is furnished to do so,
COMMENT subject to the following conditions:
COMMENT 
COMMENT (1) The above copyright notice, this permission notice, and the
COMMENT     disclaimer below shall be included in all copies or substantial
COMMENT     portions of the Software.
COMMENT 
COMMENT (2) If the design of any glyphs in the fonts that are contained in the
COMMENT     Software or generated during the installation process is modified
COMMENT     or if additional glyphs are added to the fonts, the fonts
COMMENT     must be renamed. The new names may not contain the word "UW",
COMMENT     irrespective of capitalisation; the new names may contain the word
COMMENT     "ttyp0", irrespective of capitalisation, only if preceded by a
COMMENT     foundry name different from "UW".
COMMENT 
COMMENT THE SOFTWARE IS PROVIDED "AS IS", WITHOUT WARRANTY OF ANY KIND, EXPRESS
COMMENT OR IMPLIED, INCLUDING BUT NOT LIMITED TO THE WARRANTIES OF
COMMENT MERCHANTABILITY, FITNESS FOR A PARTICULAR PURPOSE AND NONINFRINGEMENT.
COMMENT IN NO EVENT SHALL THE AUTHORS OR COPYRIGHT HOLDERS BE LIABLE FOR ANY
COMMENT CLAIM, DAMAGES OR OTHER LIABILITY, WHETHER IN AN ACTION OF CONTRACT,
COMMENT TORT OR OTHERWISE, ARISING FROM, OUT OF OR IN CONNECTION WITH THE
COMMENT SOFTWARE OR THE USE OR OTHER DEALINGS IN THE SOFTWARE.
COMMENT 
FONT -UW-Ttyp0-Medium-I-Normal--15-140-75-75-C-80-UW-Fontspecific
SIZE 15 75 75
FONTBOUNDINGBOX 8 15 0 -3
STARTPROPERTIES 19
FONTNAME_REGISTRY ""
FOUNDRY "UW"
FAMILY_NAME "Ttyp0"

STARTCHAR LtCapALdot
ENCODING 735
SWIDTH 960 0
DWIDTH 8 0
BBX 8 15 0 -3
BITMAP
00
00
0c
0c
14
14
24
24
7c
44
84
84
00
20
20
ENDCHAR
STARTCHAR LtCapBLdot
ENCODING 736
SWIDTH 960 0
DWIDTH 8 0
BBX 8 15 0 -3
BITMAP
00
00
1e
11
11
22
3c
22
22
42
44
78
00
20
20
ENDCHAR
STARTCHAR LtCapCLdot
ENCODING 737
SWIDTH 960 0
DWIDTH 8 0
BBX 8 15 0 -3
BITMAP
00
00
0e
11
20
20
40
40
40
40
44
38
00
20
20
ENDCHAR
STARTCHAR LtCapDLdot
ENCODING 738
SWIDTH 960 0
DWIDTH 8 0
BBX 8 15 0 -3
BITMAP
00
00
3c
22
22
42
42
42
44
84
88
f0
00
40
40
ENDCHAR
STARTCHAR LtCapELdot
ENCODING 739
SWIDTH 960 0
DWIDTH 8 0
BBX 8 15 0 -3
BITMAP
00
00
1f
10
10
20
3c
20
20
40
40
7c
00
20
20
ENDCHAR
STARTCHAR LtCapHLdot
ENCODING 740
SWIDTH 960 0
DWIDTH 8 0
BBX 8 15 0 -3
BITMAP
00
00
21
21
21
42
7e
42
42
84
84
84
00
20
20
ENDCHAR
STARTCHAR LtCapILdot
ENCODING 741
SWIDTH 960 0
DWIDTH 8 0
BBX 8 15 0 -3
BITMAP
00
00
1f
04
04
08
08
08
08
10
10
7c
00
20
20
ENDCHAR
STARTCHAR LtCapKLdot
ENCODING 742
SWIDTH 960 0
DWIDTH 8 0
BBX 8 15 0 -3
BITMAP
00
00
21
22
24
48
70
50
48
88
84
84
00
20
20
ENDCHAR
STARTCHAR LtCapLLdot
ENCODING 743
SWIDTH 960 0
DWIDTH 8 0
BBX 8 15 0 -3
BITMAP
00
00
10
10
10
20
20
20
20
40
40
7c
00
20
20
ENDCHAR
STARTCHAR LtCapMLdot
ENCODING 744
SWIDTH 960 0
DWIDTH 8 0
BBX 8 15 0 -3
BITMAP
00
00
21
21
33
56
5a
5a
42
84
84
84
00
20
20
ENDCHAR
STARTCHAR LtCapNLdot
ENCODING 745
SWIDTH 960 0
DWIDTH 8 0
BBX 8 15 0 -3
BITMAP
00
00
21
21
31
52
52
4a
4a
8c
84
84
00
20
20
ENDCHAR
STARTCHAR LtCapOLdot
ENCODING 746
SWIDTH 960 0
DWIDTH 8 0
BBX 8 15 0 -3
BITMAP
00
00
0e
11
21
21
41
41
42
42
44
38
00
20
20
ENDCHAR
STARTCHAR LtCapPLdot
ENCODING 747
SWIDTH 960 0
DWIDTH 8 0
BBX 8 15 0 -3
BITMAP
00
00
1e
11
11
21
22
3c
20
40
40
40
00
80
80
ENDCHAR
STARTCHAR LtCapQLdot
ENCODING 748
SWIDTH 960 0
DWIDTH 8 0
BBX 8 15 0 -3
BITMAP
00
00
0e
11
21
21
41
41
42
52
54
38
06
20
20
ENDCHAR
STARTCHAR LtCapRLdot
ENCODING 749
SWIDTH 960 0
DWIDTH 8 0
BBX 8 15 0 -3
BITMAP
00
00
1e
11
11
22
3c
30
28
48
44
44
00
20
20
ENDCHAR
STARTCHAR LtCapSLdot
ENCODING 750
SWIDTH 960 0
DWIDTH 8 0
BBX 8 15 0 -3
BITMAP
00
00
1e
21
20
20
10
08
04
04
84
78
00
20
20
ENDCHAR
STARTCHAR LtCapTLdot
ENCODING 751
SWIDTH 960 0
DWIDTH 8 0
BBX 8 15 0 -3
BITMAP
00
00
7f
08
08
10
10
10
10
20
20
20
00
40
40
ENDCHAR
STARTCHAR LtCapULdot
ENCODING 752
SWIDTH 960 0
DWIDTH 8 0
BBX 8 15 0 -3
BITMAP
00
00
21
21
41
42
42
42
82
84
84
78
00
20
20
ENDCHAR
STARTCHAR LtCapVLdot
ENCODING 753
SWIDTH 960 0
DWIDTH 8 0
BBX 8 15 0 -3
BITMAP
00
00
21
21
22
22
24
24
28
28
30
30
00
20
20
ENDCHAR
STARTCHAR LtCapWLdot
ENCODING 754
SWIDTH 960 0
DWIDTH 8 0
BBX 8 15 0 -3
BITMAP
00
00
21
21
21
22
2a
5a
6a
6c
44
44
00
10
10
ENDCHAR
STARTCHAR LtCapYLdot
ENCODING 755
SWIDTH 960 0
DWIDTH 8 0
BBX 8 15 0 -3
BITMAP
00
00
21
21
12
12
14
08
08
10
10
10
00
20
20
ENDCHAR
STARTCHAR LtCapZLdot
ENCODING 756
SWIDTH 960 0
DWIDTH 8 0
BBX 8 15 0 -3
BITMAP
00
00
3f
01
02
04
08
10
20
40
80
fc
00
20
20
ENDCHAR
STARTCHAR LtSmlALdot
ENCODING 757
SWIDTH 960 0
DWIDTH 8 0
BBX 8 15 0 -3
BITMAP
00
00
00
00
00
1e
22
22
44
44
4c
32
00
10
10
ENDCHAR
STARTCHAR LtSmlBLdot
ENCODING 758
SWIDTH 960 0
DWIDTH 8 0
BBX 8 15 0 -3
BITMAP
00
00
30
10
10
2c
32
22
22
44
44
38
00
20
20
ENDCHAR
STARTCHAR LtSmlCLdot
ENCODING 759
SWIDTH 960 0
DWIDTH 8 0
BBX 8 15 0 -3
BITMAP
00
00
00
00
00
1c
22
20
40
40
44
38
00
20
20
ENDCHAR
STARTCHAR LtSmlDLdot
ENCODING 760
SWIDTH 960 0
DWIDTH 8 0
BBX 8 15 0 -3
BITMAP
00
00
01
01
01
1e
22
22
42
44
4c
32
00
10
10
ENDCHAR
STARTCHAR LtSmlELdot
ENCODING 761
SWIDTH 960 0
DWIDTH 8 0
BBX 8 15 0 -3
BITMAP
00
00
00
00
00
1c
22
24
78
40
44
38
00
20
20
ENDCHAR
STARTCHAR LtSmlHLdot
ENCODING 762
SWIDTH 960 0
DWIDTH 8 0
BBX 8 15 0 -3
BITMAP
00
00
30
10
10
2e
32
22
22
44
44
46
00
10
10
ENDCHAR
STARTCHAR LtSmlILdot
ENCODING 763
SWIDTH 960 0
DWIDTH 8 0
BBX 8 15 0 -3
BITMAP
00
00
04
04
00
0c
18
08
08
10
12
1c
00
10
10
ENDCHAR
STARTCHAR LtSmlKLdot
ENCODING 764
SWIDTH 960 0
DWIDTH 8 0
BBX 8 15 0 -3
BITMAP
00
00
10
10
10
2e
32
22
3c
48
44
42
00
10
10
ENDCHAR
STARTCHAR LtSmlLLdot
ENCODING 765
SWIDTH 960 0
DWIDTH 8 0
BBX 8 15 0 -3
BITMAP
00
00
0c
04
04
08
08
08
08
10
14
18
00
10
10
ENDCHAR
STARTCHAR LtSmlMLdot
ENCODING 766
SWIDTH 960 0
DWIDTH 8 0
BBX 8 15 0 -3
BITMAP
00
00
00
00
00
b7
49
49
49
92
92
93
00
20
20
ENDCHAR
STARTCHAR LtSmlNLdot
ENCODING 767
SWIDTH 960 0
DWIDTH 8 0
BBX 8 15 0 -3
BITMAP
00
00
00
00
00
6e
32
22
22
44
44
46
00
10
10
ENDCHAR
STARTCHAR LtSmlOLdot
ENCODING 768
SWIDTH 960 0
DWIDTH 8 0
BBX 8 15 0 -3
BITMAP
00
00
00
00
00
1c
22
22
42
44
44
38
00
20
20
ENDCHAR
STARTCHAR LtSmlPLdot
ENCODING 769
SWIDTH 960 0
DWIDTH 8 0
BBX 8 15 0 -3
BITMAP
00
00
00
00
00
2c
72
22
22
44
44
78
40
90
90
ENDCHAR
STARTCHAR LtSmlQLdot
ENCODING 770
SWIDTH 960 0
DWIDTH 8 0
BBX 8 15 0 -3
BITMAP
00
00
00
00
00
1a
26
22
42
44
4c
34
08
28
28
ENDCHAR
STARTCHAR LtSmlRLdot
ENCODING 771
SWIDTH 960 0
DWIDTH 8 0
BBX 8 15 0 -3
BITMAP
00
00
00
00
00
16
3a
10
10
20
20
20
00
40
40
ENDCHAR
STARTCHAR LtSmlSLdot
ENCODING 772
SWIDTH 960 0
DWIDTH 8 0
BBX 8 15 0 -3
BITMAP
00
00
00
00
00
1c
22
20
18
04
44
38
00
20
20
ENDCHAR
STARTCHAR LtSmlTLdot
ENCODING 773
SWIDTH 960 0
DWIDTH 8 0
BBX 8 15 0 -3
BITMAP
00
00
00
08
08
3e
08
10
10
10
24
18
00
10
10
ENDCHAR
STARTCHAR LtSmlULdot
ENCODING 774
SWIDTH 960 0
DWIDTH 8 0
BBX 8 15 0 -3
BITMAP
00
00
00
00
00
62
22
22
42
44
4c
32
00
10
10
ENDCHAR
STARTCHAR LtSmlVLdot
ENCODING 775
SWIDTH 960 0
DWIDTH 8 0
BBX 8 15 0 -3
BITMAP
00
00
00
00
00
62
22
22
22
24
28
30
00
20
20
ENDCHAR
STARTCHAR LtSmlWLdot
ENCODING 776
SWIDTH 960 0
DWIDTH 8 0
BBX 8 15 0 -3
BITMAP
00
00
00
00
00
61
21
41
49
5a
66
44
00
10
10
ENDCHAR
STARTCHAR LtSmlYLdot
ENCODING 777
SWIDTH 960 0
DWIDTH 8 0
BBX 8 15 0 -3
BITMAP
00
00
00
00
00
62
22
22
44
44
4c
34
08
4a
72
ENDCHAR
STARTCHAR LtSmlZLdot
ENCODING 778
SWIDTH 960 0
DWIDTH 8 0
BBX 8 15 0 -3
BITMAP
00
00
00
00
00
1d
22
04
08
10
20
52
0c
20
20
ENDCHAR
STARTCHAR LtCapOHornLdot
ENCODING 779
SWIDTH 960 0
DWIDTH 8 0
BBX 8 15 0 -3
BITMAP
03
01
0e
12
22
22
42
42
44
44
48
30
00
20
20
ENDCHAR
STARTCHAR LtCapUHornLdot
ENCODING 780
SWIDTH 960 0
DWIDTH 8 0
BBX 8 15 0 -3
BITMAP
03
01
22
22
42
44
44
44
88
88
88
70
00
40
40
ENDCHAR
STARTCHAR LtSmlOHornLdot
ENCODING 781
SWIDTH 960 0
DWIDTH 8 0
BBX 8 15 0 -3
BITMAP
00
00
00
03
01
1e
22
22
42
44
44
38
00
20
20
ENDCHAR
STARTCHAR LtSmlUHornLdot
ENCODING 782
SWIDTH 960 0
DWIDTH 8 0
BBX 8 15 0 -3
BITMAP
00
00
00
03
01
62
22
22
42
44
4c
32
00
10
10
ENDCHAR
STARTCHAR LtCapSDotLdot
ENCODING 783
SWIDTH 960 0
DWIDTH 8 0
BBX 8 15 0 -3
BITMAP
04
04
00
1e
21
20
20
18
04
04
84
78
00
20
20
ENDCHAR
STARTCHAR LtSmlSDotLdot
ENCODING 784
SWIDTH 960 0
DWIDTH 8 0
BBX 8 15 0 -3
BITMAP
00
00
08
08
00
1c
22
20
18
04
44
38
00
20
20
ENDCHAR
STARTCHAR LtCapLMacronLdot
ENCODING 785
SWIDTH 960 0
DWIDTH 8 0
BBX 8 15 0 -3
BITMAP
0f
00
10
10
10
20
20
20
20
40
40
7c
00
20
20
ENDCHAR
STARTCHAR LtCapRMacronLdot
ENCODING 786
SWIDTH 960 0
DWIDTH 8 0
BBX 8 15 0 -3
BITMAP
0f
00
1e
11
11
22
3c
30
28
48
44
44
00
20
20
ENDCHAR
STARTCHAR LtSmlLMacronLdot
ENCODING 787
SWIDTH 960 0
DWIDTH 8 0
BBX 8 15 0 -3
BITMAP
0f
00
0c
04
04
08
08
08
08
10
14
18
00
10
10
ENDCHAR
STARTCHAR LtSmlRMacronLdot
ENCODING 788
SWIDTH 960 0
DWIDTH 8 0
BBX 8 15 0 -3
BITMAP
00
00
1e
00
00
16
3a
10
10
20
20
20
00
40
40
ENDCHAR
STARTCHAR LtCapEAcuteLdot
ENCODING 789
SWIDTH 960 0
DWIDTH 8 0
BBX 8 15 0 -3
BITMAP
01
06
00
1f
10
10
20
3c
20
40
40
7c
00
20
20
ENDCHAR
STARTCHAR LtCapOAcuteLdot
ENCODING 790
SWIDTH 960 0
DWIDTH 8 0
BBX 8 15 0 -3
BITMAP
01
06
00
0e
11
21
21
41
42
42
44
38
00
20
20
ENDCHAR
STARTCHAR LtCapRAcuteLdot
ENCODING 791
SWIDTH 960 0
DWIDTH 8 0
BBX 8 15 0 -3
BITMAP
01
06
00
1e
11
11
22
3c
28
48
44
44
00
20
20
ENDCHAR
STARTCHAR LtSmlEAcuteLdot
ENCODING 792
SWIDTH 960 0
DWIDTH 8 0
BBX 8 15 0 -3
BITMAP
00
04
04
08
00
1c
22
24
78
40
44
38
00
20
20
ENDCHAR
STARTCHAR LtSmlOAcuteLdot
ENCODING 793
SWIDTH 960 0
DWIDTH 8 0
BBX 8 15 0 -3
BITMAP
00
02
02
04
00
1c
22
22
42
44
44
38
00
20
20
ENDCHAR
STARTCHAR LtSmlRAcuteLdot
ENCODING 794
SWIDTH 960 0
DWIDTH 8 0
BBX 8 15 0 -3
BITMAP
00
02
02
04
00
16
3a
10
10
20
20
20
00
40
40
ENDCHAR
STARTCHAR LtSmlRMacronAcuteLdot
ENCODING 795
SWIDTH 960 0
DWIDTH 8 0
BBX 8 15 0 -3
BITMAP
01
06
00
1e
00
16
3a
10
10
20
20
20
00
40
40
ENDCHAR
STARTCHAR LtCapEGraveLdot
ENCODING 796
SWIDTH 960 0
DWIDTH 8 0
BBX 8 15 0 -3
BITMAP
08
06
00
1f
10
10
20
3c
20
40
40
7c
00
20
20
ENDCHAR
STARTCHAR LtCapOGraveLdot
ENCODING 797
SWIDTH 960 0
DWIDTH 8 0
BBX 8 15 0 -3
BITMAP
08
06
00
0e
11
21
21
41
42
42
44
38
00
20
20
ENDCHAR
STARTCHAR LtCapRGraveLdot
ENCODING 798
SWIDTH 960 0
DWIDTH 8 0
BBX 8 15 0 -3
BITMAP
08
06
00
1e
11
11
22
3c
28
48
44
44
00
20
20
ENDCHAR
STARTCHAR LtSmlEGraveLdot
ENCODING 799
SWIDTH 960 0
DWIDTH 8 0
BBX 8 15 0 -3
BITMAP
00
08
08
04
00
1c
22
24
78
40
44
38
00
20
20
ENDCHAR
STARTCHAR LtSmlOGraveLdot
ENCODING 800
SWIDTH 960 0
DWIDTH 8 0
BBX 8 15 0 -3
BITMAP
00
08
08
04
00
1c
22
22
42
44
44
38
00
20
20
ENDCHAR
STARTCHAR LtSmlRGraveLdot
ENCODING 801
SWIDTH 960 0
DWIDTH 8 0
BBX 8 15 0 -3
BITMAP
00
08
08
04
00
16
3a
10
10
20
20
20
00
40
40
ENDCHAR
STARTCHAR LtCapACircumLdot
ENCODING 802
SWIDTH 960 0
DWIDTH 8 0
BBX 8 15 0 -3
BITMAP
0c
12
00
0c
0c
14
14
24
7c
44
84
84
00
20
20
ENDCHAR
STARTCHAR LtCapECircumLdot
ENCODING 803
SWIDTH 960 0
DWIDTH 8 0
BBX 8 15 0 -3
BITMAP
06
09
00
1f
10
10
20
3c
20
40
40
7c
00
20
20
ENDCHAR
STARTCHAR LtCapOCircumLdot
ENCODING 804
SWIDTH 960 0
DWIDTH 8 0
BBX 8 15 0 -3
BITMAP
06
09
00
0e
11
21
21
41
42
42
44
38
00
20
20
ENDCHAR
STARTCHAR LtSmlACircumLdot
ENCODING 805
SWIDTH 960 0
DWIDTH 8 0
BBX 8 15 0 -3
BITMAP
00
00
0c
12
00
1e
22
22
44
44
4c
32
00
10
10
ENDCHAR
STARTCHAR LtSmlECircumLdot
ENCODING 806
SWIDTH 960 0
DWIDTH 8 0
BBX 8 15 0 -3
BITMAP
00
00
0c
12
00
1c
22
24
78
40
44
38
00
20
20
ENDCHAR
STARTCHAR LtSmlOCircumLdot
ENCODING 807
SWIDTH 960 0
DWIDTH 8 0
BBX 8 15 0 -3
BITMAP
00
00
0c
12
00
1c
22
22
42
44
44
38
00
20
20
ENDCHAR
STARTCHAR LtCapCCaronLdot
ENCODING 808
SWIDTH 960 0
DWIDTH 8 0
BBX 8 15 0 -3
BITMAP
09
06
00
0e
11
20
20
40
40
40
44
38
00
20
20
ENDCHAR
STARTCHAR LtSmlCCaronLdot
ENCODING 809
SWIDTH 960 0
DWIDTH 8 0
BBX 8 15 0 -3
BITMAP
00
00
12
0c
00
1c
22
20
40
40
44
38
00
20
20
ENDCHAR
STARTCHAR LtCapABreveLdot
ENCODING 810
SWIDTH 960 0
DWIDTH 8 0
BBX 8 15 0 -3
BITMAP
11
0e
00
0c
0c
14
14
24
7c
44
84
84
00
20
20
ENDCHAR
STARTCHAR LtSmlABreveLdot
ENCODING 811
SWIDTH 960 0
DWIDTH 8 0
BBX 8 15 0 -3
BITMAP
00
00
12
0c
00
1e
22
22
44
44
4c
32
00
10
10
ENDCHAR
STARTCHAR LtSmlRLvline
ENCODING 815
SWIDTH 960 0
DWIDTH 8 0
BBX 8 15 0 -3
BITMAP
00
00
00
00
00
16
3a
10
10
20
20
20
10
10
10
ENDCHAR
STARTCHAR LtCapALring
ENCODING 817
SWIDTH 960 0
DWIDTH 8 0
BBX 8 15 0 -3
BITMAP
00
00
0c
0c
14
14
24
24
7c
44
84
84
20
50
20
ENDCHAR
STARTCHAR LtCapRLring
ENCODING 818
SWIDTH 960 0
DWIDTH 8 0
BBX 8 15 0 -3
BITMAP
00
00
1e
11
11
22
3c
30
28
48
44
44
10
28
10
ENDCHAR
STARTCHAR LtSmlALring
ENCODING 819
SWIDTH 960 0
DWIDTH 8 0
BBX 8 15 0 -3
BITMAP
00
00
00
00
00
1e
22
22
44
44
4c
32
10
28
10
ENDCHAR
STARTCHAR LtSmlLLring
ENCODING 820
SWIDTH 960 0
DWIDTH 8 0
BBX 8 15 0 -3
BITMAP
00
00
0c
04
04
08
08
08
08
10
14
18
10
28
10
ENDCHAR
STARTCHAR LtSmlRLring
ENCODING 821
SWIDTH 960 0
DWIDTH 8 0
BBX 8 15 0 -3
BITMAP
00
00
00
00
00
16
3a
10
10
20
20
20
20
50
20
ENDCHAR
STARTCHAR LtSmlLMacronLring
ENCODING 822
SWIDTH 960 0
DWIDTH 8 0
BBX 8 15 0 -3
BITMAP
0f
00
0c
04
04
08
08
08
08
10
14
18
10
28
10
ENDCHAR
STARTCHAR LtSmlRMacronLring
ENCODING 823
SWIDTH 960 0
DWIDTH 8 0
BBX 8 15 0 -3
BITMAP
00
00
1e
00
00
16
3a
10
10
20
20
20
20
50
20
ENDCHAR
STARTCHAR LtSmlRAcuteLring
ENCODING 824
SWIDTH 960 0
DWIDTH 8 0
BBX 8 15 0 -3
BITMAP
00
02
02
04
00
16
3a
10
10
20
20
20
20
50
20
ENDCHAR
STARTCHAR LtSmlRMacronAcuteLring
ENCODING 825
SWIDTH 960 0
DWIDTH 8 0
BBX 8 15 0 -3
BITMAP
01
06
00
1e
00
16
3a
10
10
20
20
20
20
50
20
ENDCHAR
STARTCHAR LtSmlRGraveLring
ENCODING 826
SWIDTH 960 0
DWIDTH 8 0
BBX 8 15 0 -3
BITMAP
00
08
08
04
00
16
3a
10
10
20
20
20
20
50
20
ENDCHAR
STARTCHAR LtCapULdrss
ENCODING 827
SWIDTH 960 0
DWIDTH 8 0
BBX 8 15 0 -3
BITMAP
00
00
21
21
41
42
42
42
82
84
84
78
00
48
48
ENDCHAR
STARTCHAR LtSmlULdrss
ENCODING 828
SWIDTH 960 0
DWIDTH 8 0
BBX 8 15 0 -3
BITMAP
00
00
00
00
00
62
22
22
42
44
4c
32
00
48
48
ENDCHAR
STARTCHAR LtCapBLmacron
ENCODING 829
SWIDTH 960 0
DWIDTH 8 0
BBX 8 15 0 -3
BITMAP
00
00
1e
11
11
22
3c
22
22
42
44
78
00
00
78
ENDCHAR
STARTCHAR LtCapDLmacron
ENCODING 830
SWIDTH 960 0
DWIDTH 8 0
BBX 8 15 0 -3
BITMAP
00
00
3c
22
22
42
42
42
44
84
88
f0
00
00
f0
ENDCHAR
STARTCHAR LtCapELmacron
ENCODING 831
SWIDTH 960 0
DWIDTH 8 0
BBX 8 15 0 -3
BITMAP
00
00
1f
10
10
20
3c
20
20
40
40
7c
00
00
78
ENDCHAR
STARTCHAR LtCapHLmacron
ENCODING 832
SWIDTH 960 0
DWIDTH 8 0
BBX 8 15 0 -3
BITMAP
00
00
21
21
21
42
7e
42
42
84
84
84
00
00
f0
ENDCHAR
STARTCHAR LtCapKLmacron
ENCODING 833
SWIDTH 960 0
DWIDTH 8 0
BBX 8 15 0 -3
BITMAP
00
00
21
22
24
48
70
50
48
88
84
84
00
00
f0
ENDCHAR
STARTCHAR LtCapLLmacron
ENCODING 834
SWIDTH 960 0
DWIDTH 8 0
BBX 8 15 0 -3
BITMAP
00
00
10
10
10
20
20
20
20
40
40
7c
00
00
f0
ENDCHAR
STARTCHAR LtCapNLmacron
ENCODING 835
SWIDTH 960 0
DWIDTH 8 0
BBX 8 15 0 -3
BITMAP
00
00
21
21
31
52
52
4a
4a
8c
84
84
00
00
f0
ENDCHAR
STARTCHAR LtCapOLmacron
ENCODING 836
SWIDTH 960 0
DWIDTH 8 0
BBX 8 15 0 -3
BITMAP
00
00
0e
11
21
21
41
41
42
42
44
38
00
00
78
ENDCHAR
STARTCHAR LtCapRLmacron
ENCODING 837
SWIDTH 960 0
DWIDTH 8 0
BBX 8 15 0 -3
BITMAP
00
00
1e
11
11
22
3c
30
28
48
44
44
00
00
f0
ENDCHAR
STARTCHAR LtCapTLmacron
ENCODING 838
SWIDTH 960 0
DWIDTH 8 0
BBX 8 15 0 -3
BITMAP
00
00
7f
08
08
10
10
10
10
20
20
20
00
00
f0
ENDCHAR
STARTCHAR LtCapZLmacron
ENCODING 839
SWIDTH 960 0
DWIDTH 8 0
BBX 8 15 0 -3
BITMAP
00
00
3f
01
02
04
08
10
20
40
80
fc
00
00
f0
ENDCHAR
STARTCHAR LtSmlBLmacron
ENCODING 840
SWIDTH 960 0
DWIDTH 8 0
BBX 8 15 0 -3
BITMAP
00
00
30
10
10
2c
32
22
22
44
44
38
00
00
78
ENDCHAR
STARTCHAR LtSmlDLmacron
ENCODING 841
SWIDTH 960 0
DWIDTH 8 0
BBX 8 15 0 -3
BITMAP
00
00
01
01
01
1e
22
22
42
44
4c
32
00
00
78
ENDCHAR
STARTCHAR LtSmlELmacron
ENCODING 842
SWIDTH 960 0
DWIDTH 8 0
BBX 8 15 0 -3
BITMAP
00
00
00
00
00
1c
22
24
78
40
44
38
00
00
78
ENDCHAR
STARTCHAR LtSmlHLmacron
ENCODING 843
SWIDTH 960 0
DWIDTH 8 0
BBX 8 15 0 -3
BITMAP
00
00
30
10
10
2e
32
22
22
44
44
46
00
00
78
ENDCHAR
STARTCHAR LtSmlKLmacron
ENCODING 844
SWIDTH 960 0
DWIDTH 8 0
BBX 8 15 0 -3
BITMAP
00
00
10
10
10
2e
32
22
3c
48
44
42
00
00
78
ENDCHAR
STARTCHAR LtSmlLLmacron
ENCODING 845
SWIDTH 960 0
DWIDTH 8 0
BBX 8 15 0 -3
BITMAP
00
00
0c
04
04
08
08
08
08
10
14
18
00
00
78
ENDCHAR
STARTCHAR LtSmlNLmacron
ENCODING 846
SWIDTH 960 0
DWIDTH 8 0
BBX 8 15 0 -3
BITMAP
00
00
00
00
00
6e
32
22
22
44
44
46
00
00
78
ENDCHAR
STARTCHAR LtSmlOLmacron
ENCODING 847
SWIDTH 960 0
DWIDTH 8 0
BBX 8 15 0 -3
BITMAP
00
00
00
00
00
1c
22
22
42
44
44
38
00
00
78
ENDCHAR
STARTCHAR LtSmlRLmacron
ENCODING 848
SWIDTH 960 0
DWIDTH 8 0
BBX 8 15 0 -3
BITMAP
00
00
00
00
00
16
3a
10
10
20
20
20
00
00
f0
ENDCHAR
STARTCHAR LtSmlTLmacron
ENCODING 849
SWIDTH 960 0
DWIDTH 8 0
BBX 8 15 0 -3
BITMAP
00
00
00
08
08
3e
08
10
10
10
24
18
00
00
3c
ENDCHAR
STARTCHAR LtSmlZLmacron
ENCODING 850
SWIDTH 960 0
DWIDTH 8 0
BBX 8 15 0 -3
BITMAP
00
00
00
00
00
1d
22
04
08
10
20
52
0c
00
78
ENDCHAR
STARTCHAR LtCapGHLmacron
ENCODING 851
SWIDTH 960 0
DWIDTH 8 0
BBX 8 15 0 -3
BITMAP
00
00
15
35
45
45
8e
aa
aa
aa
d4
d4
00
00
78
ENDCHAR
STARTCHAR LtCapKHLmacron
ENCODING 852
SWIDTH 960 0
DWIDTH 8 0
BBX 8 15 0 -3
BITMAP
00
00
2d
2d
55
55
6e
6a
6a
aa
b4
b4
00
00
78
ENDCHAR
STARTCHAR LtMixGHLmacron
ENCODING 853
SWIDTH 960 0
DWIDTH 8 0
BBX 8 15 0 -3
BITMAP
00
00
0a
1a
22
47
45
b5
95
aa
aa
6b
00
00
78
ENDCHAR
STARTCHAR LtMixKHLmacron
ENCODING 854
SWIDTH 960 0
DWIDTH 8 0
BBX 8 15 0 -3
BITMAP
00
00
2a
2a
2a
57
65
65
55
aa
aa
ab
00
00
78
ENDCHAR
STARTCHAR LtSmlGHLmacron
ENCODING 855
SWIDTH 960 0
DWIDTH 8 0
BBX 8 15 0 -3
BITMAP
00
00
02
02
02
37
55
55
95
aa
aa
6b
20
a0
fc
ENDCHAR
STARTCHAR LtSmlKHLmacron
ENCODING 856
SWIDTH 960 0
DWIDTH 8 0
BBX 8 15 0 -3
BITMAP
00
00
22
22
22
77
55
55
65
aa
aa
ab
00
00
78
ENDCHAR
STARTCHAR LtCapDLcircum
ENCODING 857
SWIDTH 960 0
DWIDTH 8 0
BBX 8 15 0 -3
BITMAP
00
00
3c
22
22
42
42
42
44
84
88
f0
00
60
90
ENDCHAR
STARTCHAR LtCapELcircum
ENCODING 858
SWIDTH 960 0
DWIDTH 8 0
BBX 8 15 0 -3
BITMAP
00
00
1f
10
10
20
3c
20
20
40
40
7c
00
30
48
ENDCHAR
STARTCHAR LtCapLLcircum
ENCODING 859
SWIDTH 960 0
DWIDTH 8 0
BBX 8 15 0 -3
BITMAP
00
00
10
10
10
20
20
20
20
40
40
7c
00
30
48
ENDCHAR
STARTCHAR LtCapNLcircum
ENCODING 860
SWIDTH 960 0
DWIDTH 8 0
BBX 8 15 0 -3
BITMAP
00
00
21
21
31
52
52
4a
4a
8c
84
84
00
30
48
ENDCHAR
STARTCHAR LtCapTLcircum
ENCODING 861
SWIDTH 960 0
DWIDTH 8 0
BBX 8 15 0 -3
BITMAP
00
00
7f
08
08
10
10
10
10
20
20
20
00
60
90
ENDCHAR
STARTCHAR LtCapULcircum
ENCODING 862
SWIDTH 960 0
DWIDTH 8 0
BBX 8 15 0 -3
BITMAP
00
00
21
21
41
42
42
42
82
84
84
78
00
60
90
ENDCHAR
STARTCHAR LtSmlDLcircum
ENCODING 863
SWIDTH 960 0
DWIDTH 8 0
BBX 8 15 0 -3
BITMAP
00
00
01
01
01
1e
22
22
42
44
4c
32
00
30
48
ENDCHAR
STARTCHAR LtSmlELcircum
ENCODING 864
SWIDTH 960 0
DWIDTH 8 0
BBX 8 15 0 -3
BITMAP
00
00
00
00
00
1c
22
24
78
40
44
38
00
30
48
ENDCHAR
STARTCHAR LtSmlLLcircum
ENCODING 865
SWIDTH 960 0
DWIDTH 8 0
BBX 8 15 0 -3
BITMAP
00
00
0c
04
04
08
08
08
08
10
14
18
00
18
24
ENDCHAR
STARTCHAR LtSmlNLcircum
ENCODING 866
SWIDTH 960 0
DWIDTH 8 0
BBX 8 15 0 -3
BITMAP
00
00
00
00
00
6e
32
22
22
44
44
46
00
30
48
ENDCHAR
STARTCHAR LtSmlTLcircum
ENCODING 867
SWIDTH 960 0
DWIDTH 8 0
BBX 8 15 0 -3
BITMAP
00
00
00
08
08
3e
08
10
10
10
24
18
00
30
48
ENDCHAR
STARTCHAR LtSmlULcircum
ENCODING 868
SWIDTH 960 0
DWIDTH 8 0
BBX 8 15 0 -3
BITMAP
00
00
00
00
00
62
22
22
42
44
4c
32
00
30
48
ENDCHAR
STARTCHAR LtCapHLbreve
ENCODING 869
SWIDTH 960 0
DWIDTH 8 0
BBX 8 15 0 -3
BITMAP
00
00
21
21
21
42
7e
42
42
84
84
84
00
48
30
ENDCHAR
STARTCHAR LtSmlHLbreve
ENCODING 870
SWIDTH 960 0
DWIDTH 8 0
BBX 8 15 0 -3
BITMAP
00
00
30
10
10
2e
32
22
22
44
44
46
00
48
30
ENDCHAR
STARTCHAR LtSmlILinvbreve
ENCODING 871
SWIDTH 960 0
DWIDTH 8 0
BBX 8 15 0 -3
BITMAP
00
00
04
04
00
0c
18
08
08
10
12
1c
00
18
24
ENDCHAR
STARTCHAR LtSmlOLinvbreve
ENCODING 872
SWIDTH 960 0
DWIDTH 8 0
BBX 8 15 0 -3
BITMAP
00
00
00
00
00
1c
22
22
42
44
44
38
00
30
48
ENDCHAR
STARTCHAR LtSmlULinvbreve
ENCODING 873
SWIDTH 960 0
DWIDTH 8 0
BBX 8 15 0 -3
BITMAP
00
00
00
00
00
62
22
22
42
44
4c
32
00
30
48
ENDCHAR
STARTCHAR LtSmlATrndLinvbreve
ENCODING 874
SWIDTH 960 0
DWIDTH 8 0
BBX 8 15 0 -3
BITMAP
00
00
00
00
00
6c
32
22
3c
40
48
38
00
30
48
ENDCHAR
STARTCHAR LtCapELtilde
ENCODING 875
SWIDTH 960 0
DWIDTH 8 0
BBX 8 15 0 -3
BITMAP
00
00
1f
10
10
20
3c
20
20
40
40
7c
00
24
58
ENDCHAR
STARTCHAR LtCapILtilde
ENCODING 876
SWIDTH 960 0
DWIDTH 8 0
BBX 8 15 0 -3
BITMAP
00
00
1f
04
04
08
08
08
08
10
10
7c
00
24
58
ENDCHAR
STARTCHAR LtCapULtilde
ENCODING 877
SWIDTH 960 0
DWIDTH 8 0
BBX 8 15 0 -3
BITMAP
00
00
21
21
41
42
42
42
82
84
84
78
00
48
b0
ENDCHAR
STARTCHAR LtSmlELtilde
ENCODING 878
SWIDTH 960 0
DWIDTH 8 0
BBX 8 15 0 -3
BITMAP
00
00
00
00
00
1c
22
24
78
40
44
38
00
24
58
ENDCHAR
STARTCHAR LtSmlILtilde
ENCODING 879
SWIDTH 960 0
DWIDTH 8 0
BBX 8 15 0 -3
BITMAP
00
00
04
04
00
0c
18
08
08
10
12
1c
00
24
58
ENDCHAR
STARTCHAR LtSmlULtilde
ENCODING 880
SWIDTH 960 0
DWIDTH 8 0
BBX 8 15 0 -3
BITMAP
00
00
00
00
00
62
22
22
42
44
4c
32
00
24
58
ENDCHAR
STARTCHAR HbAlefPatah
ENCODING 1273
SWIDTH 960 0
DWIDTH 8 0
BBX 8 15 0 -3
BITMAP
00
00
00
00
8c
ce
66
78
98
cc
66
e2
00
7c
00
ENDCHAR
STARTCHAR HbAlefQamats
ENCODING 1275
SWIDTH 960 0
DWIDTH 8 0
BBX 8 15 0 -3
BITMAP
00
00
00
00
8c
ce
66
78
98
cc
66
e2
00
38
10
ENDCHAR
STARTCHAR GeGan
ENCODING 1306
SWIDTH 960 0
DWIDTH 8 0
BBX 8 15 0 -3
BITMAP
00
00
00
00
00
00
38
44
08
38
44
84
84
88
70
ENDCHAR
STARTCHAR GeDon
ENCODING 1307
SWIDTH 960 0
DWIDTH 8 0
BBX 8 15 0 -3
BITMAP
00
00
00
00
00
00
1c
22
42
42
44
38
20
f8
04
ENDCHAR
STARTCHAR GeEn
ENCODING 1308
SWIDTH 960 0
DWIDTH 8 0
BBX 8 15 0 -3
BITMAP
00
00
00
00
00
00
1c
22
22
02
04
04
88
88
f0
ENDCHAR
STARTCHAR GeVin
ENCODING 1309
SWIDTH 960 0
DWIDTH 8 0
BBX 8 15 0 -3
BITMAP
00
00
00
00
00
00
1c
22
22
0c
04
04
88
88
f0
ENDCHAR
STARTCHAR GeKan
ENCODING 1313
SWIDTH 960 0
DWIDTH 8 0
BBX 8 15 0 -3
BITMAP
00
00
00
00
00
00
02
02
04
18
04
04
88
88
f0
ENDCHAR
STARTCHAR GeLas
ENCODING 1314
SWIDTH 960 0
DWIDTH 8 0
BBX 8 15 0 -3
BITMAP
00
00
00
00
00
00
1c
22
42
42
40
20
70
88
04
ENDCHAR
STARTCHAR GeZhar
ENCODING 1319
SWIDTH 960 0
DWIDTH 8 0
BBX 8 15 0 -3
BITMAP
00
00
00
00
00
00
06
6a
4a
54
24
04
88
88
f0
ENDCHAR
STARTCHAR GeTar
ENCODING 1322
SWIDTH 960 0
DWIDTH 8 0
BBX 8 15 0 -3
BITMAP
00
00
00
00
00
0c
14
3c
2a
42
82
82
84
88
78
ENDCHAR
STARTCHAR GeUn
ENCODING 1323
SWIDTH 960 0
DWIDTH 8 0
BBX 8 15 0 -3
BITMAP
00
00
00
00
00
00
4c
72
12
24
04
04
88
88
f0
ENDCHAR
STARTCHAR GePhar
ENCODING 1324
SWIDTH 960 0
DWIDTH 8 0
BBX 8 15 0 -3
BITMAP
00
00
00
00
00
00
36
49
49
52
26
02
42
44
78
ENDCHAR
STARTCHAR GeKhar
ENCODING 1325
SWIDTH 960 0
DWIDTH 8 0
BBX 8 15 0 -3
BITMAP
00
00
01
03
01
02
02
1e
22
04
04
04
88
88
f0
ENDCHAR
STARTCHAR GeGhan
ENCODING 1326
SWIDTH 960 0
DWIDTH 8 0
BBX 8 15 0 -3
BITMAP
00
00
00
00
00
00
36
49
49
92
82
80
60
98
04
ENDCHAR
STARTCHAR GeQar
ENCODING 1327
SWIDTH 960 0
DWIDTH 8 0
BBX 8 15 0 -3
BITMAP
00
00
00
00
00
00
22
22
42
44
3c
04
88
88
f0
ENDCHAR
STARTCHAR GeCan
ENCODING 1330
SWIDTH 960 0
DWIDTH 8 0
BBX 8 15 0 -3
BITMAP
00
00
00
00
00
00
24
26
42
42
8c
84
84
88
70
ENDCHAR
STARTCHAR GeCil
ENCODING 1332
SWIDTH 960 0
DWIDTH 8 0
BBX 8 15 0 -3
BITMAP
00
00
1b
25
29
2a
20
3e
22
24
24
28
30
30
20
ENDCHAR
STARTCHAR GeChar
ENCODING 1333
SWIDTH 960 0
DWIDTH 8 0
BBX 8 15 0 -3
BITMAP
00
00
08
04
02
02
04
36
5c
6a
08
08
90
90
e0
ENDCHAR
STARTCHAR GeWe
ENCODING 1339
SWIDTH 960 0
DWIDTH 8 0
BBX 8 15 0 -3
BITMAP
00
00
00
00
00
00
3e
04
08
10
38
04
84
88
f8
ENDCHAR
STARTCHAR GeHar
ENCODING 1340
SWIDTH 960 0
DWIDTH 8 0
BBX 8 15 0 -3
BITMAP
00
00
04
08
10
10
0e
04
08
10
38
04
84
88
f0
ENDCHAR
STARTCHAR GeFi
ENCODING 1342
SWIDTH 960 0
DWIDTH 8 0
BBX 8 15 0 -3
BITMAP
00
00
00
00
00
00
14
2a
4a
52
54
18
20
20
c0
ENDCHAR
STARTCHAR GeYn
ENCODING 1343
SWIDTH 960 0
DWIDTH 8 0
BBX 8 15 0 -3
BITMAP
00
00
00
00
00
00
1c
22
22
0c
30
40
88
88
70
ENDCHAR
STARTCHAR GeElifi
ENCODING 1344
SWIDTH 960 0
DWIDTH 8 0
BBX 8 15 0 -3
BITMAP
00
00
00
00
00
00
22
22
22
44
78
40
88
88
70
ENDCHAR
STARTCHAR GeUo
ENCODING 1347
SWIDTH 960 0
DWIDTH 8 0
BBX 8 15 0 -3
BITMAP
00
00
00
00
00
00
19
27
24
48
40
40
88
88
70
ENDCHAR
STARTCHAR GeGanTrnd
ENCODING 1350
SWIDTH 960 0
DWIDTH 8 0
BBX 8 15 0 -3
BITMAP
00
00
00
00
00
00
1c
22
42
42
44
38
20
44
38
ENDCHAR
STARTCHAR GeUnDrss
ENCODING 1353
SWIDTH 960 0
DWIDTH 8 0
BBX 8 15 0 -3
BITMAP
00
00
00
12
12
00
4c
72
12
24
04
04
88
88
f0
ENDCHAR
STARTCHAR GeUnCircum
ENCODING 1355
SWIDTH 960 0
DWIDTH 8 0
BBX 8 15 0 -3
BITMAP
00
00
00
0c
12
00
4c
72
12
24
04
04
88
88
f0
ENDCHAR
STARTCHAR GeEnMacron
ENCODING 1357
SWIDTH 960 0
DWIDTH 8 0
BBX 8 15 0 -3
BITMAP
00
00
00
1e
00
00
1c
22
22
02
04
04
88
88
f0
ENDCHAR
STARTCHAR GeUnMacron
ENCODING 1360
SWIDTH 960 0
DWIDTH 8 0
BBX 8 15 0 -3
BITMAP
00
00
00
1e
00
00
4c
72
12
24
04
04
88
88
f0
ENDCHAR
STARTCHAR AmSmlEh
ENCODING 1407
SWIDTH 960 0
DWIDTH 8 0
BBX 8 15 0 -3
BITMAP
00
00
10
10
10
20
3e
20
20
40
40
38
04
08
00
ENDCHAR
STARTCHAR AmSmlYi
ENCODING 1421
SWIDTH 960 0
DWIDTH 8 0
BBX 8 15 0 -3
BITMAP
00
00
00
00
00
00
1c
08
08
08
10
10
10
20
c0
ENDCHAR
STARTCHAR AmSmlSha
ENCODING 1423
SWIDTH 960 0
DWIDTH 8 0
BBX 8 15 0 -3
BITMAP
00
00
00
00
00
00
1c
22
04
08
10
20
40
80
78
ENDCHAR
STARTCHAR AmSmlCha
ENCODING 1425
SWIDTH 960 0
DWIDTH 8 0
BBX 8 15 0 -3
BITMAP
00
00
00
00
00
00
08
10
08
08
10
20
40
80
78
ENDCHAR
STARTCHAR AmSmlJheh
ENCODING 1427
SWIDTH 960 0
DWIDTH 8 0
BBX 8 15 0 -3
BITMAP
00
00
06
09
09
11
12
12
14
18
10
20
40
80
78
ENDCHAR
STARTCHAR AmSmlCo
ENCODING 1433
SWIDTH 960 0
DWIDTH 8 0
BBX 8 15 0 -3
BITMAP
00
00
00
00
00
00
1e
22
22
44
4c
34
08
88
f0
ENDCHAR
STARTCHAR AmSmlKeh
ENCODING 1436
SWIDTH 960 0
DWIDTH 8 0
BBX 8 15 0 -3
BITMAP
00
00
00
00
00
00
3c
22
22
22
44
78
80
f8
80
ENDCHAR
STARTCHAR GkCapIotTrndLbreve
ENCODING 1529
SWIDTH 960 0
DWIDTH 8 0
BBX 8 15 0 -3
BITMAP
00
00
1f
04
04
08
08
08
08
10
10
7c
00
44
38
ENDCHAR
STARTCHAR GkCapUpsTrndLbreve
ENCODING 1530
SWIDTH 960 0
DWIDTH 8 0
BBX 8 15 0 -3
BITMAP
00
00
04
04
04
08
08
14
14
22
42
42
00
44
38
ENDCHAR
STARTCHAR GkSmlIotTrndLbreve
ENCODING 1531
SWIDTH 960 0
DWIDTH 8 0
BBX 8 15 0 -3
BITMAP
00
00
00
00
00
18
24
08
08
08
10
18
00
44
38
ENDCHAR
STARTCHAR GkSmlUpsTrndLbreve
ENCODING 1532
SWIDTH 960 0
DWIDTH 8 0
BBX 8 15 0 -3
BITMAP
00
00
00
00
00
1c
22
42
42
44
44
22
00
44
38
ENDCHAR
STARTCHAR ThYoYing
ENCODING 1770
SWIDTH 960 0
DWIDTH 8 0
BBX 8 15 0 -3
BITMAP
00
00
00
00
00
32
4a
52
54
94
a4
98
00
48
30
ENDCHAR
STARTCHAR ThDoChada
ENCODING 1772
SWIDTH 960 0
DWIDTH 8 0
BBX 8 15 0 -3
BITMAP
00
00
00
00
00
3c
42
62
24
44
c4
c8
08
08
70
ENDCHAR
STARTCHAR ThToPatak
ENCODING 1773
SWIDTH 960 0
DWIDTH 8 0
BBX 8 15 0 -3
BITMAP
00
00
00
00
00
3c
42
62
24
44
c4
c8
08
a8
f0
ENDCHAR
STARTCHAR ThThoThan
ENCODING 1774
SWIDTH 960 0
DWIDTH 8 0
BBX 8 15 0 -3
BITMAP
00
00
00
00
00
7e
08
04
34
3c
08
08
00
a8
f0
ENDCHAR
STARTCHAR ThRu
ENCODING 1795
SWIDTH 960 0
DWIDTH 8 0
BBX 8 15 0 -3
BITMAP
00
00
00
00
00
3c
42
62
22
44
64
64
08
08
08
ENDCHAR
STARTCHAR ThLu
ENCODING 1797
SWIDTH 960 0
DWIDTH 8 0
BBX 8 15 0 -3
BITMAP
00
00
00
00
00
3c
42
62
22
44
c4
c4
08
08
08
ENDCHAR
STARTCHAR ThMaiyamok
ENCODING 1808
SWIDTH 960 0
DWIDTH 8 0
BBX 8 15 0 -3
BITMAP
00
00
00
00
00
34
4a
62
62
04
04
04
08
08
10
ENDCHAR
STARTCHAR ThLakkhangyao
ENCODING 1809
SWIDTH 960 0
DWIDTH 8 0
BBX 8 15 0 -3
BITMAP
00
00
00
00
00
18
24
04
04
08
08
08
10
10
10
ENDCHAR
STARTCHAR ThSaraU
ENCODING 1831
SWIDTH 960 0
DWIDTH 8 0
BBX 8 15 0 -3
BITMAP
00
00
00
00
00
00
00
00
00
00
00
00
00
18
08
ENDCHAR
STARTCHAR ThSaraUu
ENCODING 1832
SWIDTH 960 0
DWIDTH 8 0
BBX 8 15 0 -3
BITMAP
00
00
00
00
00
00
00
00
00
00
00
00
00
68
38
ENDCHAR
STARTCHAR ThPhinthu
ENCODING 1833
SWIDTH 960 0
DWIDTH 8 0
BBX 8 15 0 -3
BITMAP
00
00
00
00
00
00
00
00
00
00
00
00
00
18
18
ENDCHAR
STARTCHAR CombHbMeteg
ENCODING 2118
SWIDTH 960 0
DWIDTH 8 0
BBX 8 15 0 -3
BITMAP
00
00
00
00
00
00
00
00
00
00
00
00
10
10
10
ENDCHAR
STARTCHAR CombHbPatah
ENCODING 2119
SWIDTH 960 0
DWIDTH 8 0
BBX 8 15 0 -3
BITMAP
00
00
00
00
00
00
00
00
00
00
00
00
00
7c
00
ENDCHAR
STARTCHAR CombHbQamats
ENCODING 2120
SWIDTH 960 0
DWIDTH 8 0
BBX 8 15 0 -3
BITMAP
00
00
00
00
00
00
00
00
00
00
00
00
00
38
10
ENDCHAR
STARTCHAR CombHbSegol
ENCODING 2121
SWIDTH 960 0
DWIDTH 8 0
BBX 8 15 0 -3
BITMAP
00
00
00
00
00
00
00
00
00
00
00
00
00
66
18
ENDCHAR
STARTCHAR CombHbHatafQamats
ENCODING 2125
SWIDTH 960 0
DWIDTH 8 0
BBX 8 15 0 -3
BITMAP
00
00
00
00
00
00
00
00
00
00
00
00
06
70
26
ENDCHAR
STARTCHAR CombLdot
ENCODING 2174
SWIDTH 960 0
DWIDTH 8 0
BBX 8 15 0 -3
BITMAP
00
00
00
00
00
00
00
00
00
00
00
00
00
20
20
ENDCHAR
STARTCHAR CombLvline
ENCODING 2175
SWIDTH 960 0
DWIDTH 8 0
BBX 8 15 0 -3
BITMAP
00
00
00
00
00
00
00
00
00
00
00
00
20
20
20
ENDCHAR
STARTCHAR CombLdrss
ENCODING 2176
SWIDTH 960 0
DWIDTH 8 0
BBX 8 15 0 -3
BITMAP
00
00
00
00
00
00
00
00
00
00
00
00
00
48
48
ENDCHAR
STARTCHAR CombLvline2
ENCODING 2177
SWIDTH 960 0
DWIDTH 8 0
BBX 8 15 0 -3
BITMAP
00
00
00
00
00
00
00
00
00
00
00
00
48
48
48
ENDCHAR
STARTCHAR CombLcircum
ENCODING 2180
SWIDTH 960 0
DWIDTH 8 0
BBX 8 15 0 -3
BITMAP
00
00
00
00
00
00
00
00
00
00
00
00
00
30
48
ENDCHAR
STARTCHAR CombLcaron
ENCODING 2181
SWIDTH 960 0
DWIDTH 8 0
BBX 8 15 0 -3
BITMAP
00
00
00
00
00
00
00
00
00
00
00
00
00
48
30
ENDCHAR
STARTCHAR CombLbreve
ENCODING 2182
SWIDTH 960 0
DWIDTH 8 0
BBX 8 15 0 -3
BITMAP
00
00
00
00
00
00
00
00
00
00
00
00
00
48
30
ENDCHAR
STARTCHAR CombLinvbreve
ENCODING 2183
SWIDTH 960 0
DWIDTH 8 0
BBX 8 15 0 -3
BITMAP
00
00
00
00
00
00
00
00
00
00
00
00
00
30
48
ENDCHAR
STARTCHAR CombLmacron
ENCODING 2184
SWIDTH 960 0
DWIDTH 8 0
BBX 8 15 0 -3
BITMAP
00
00
00
00
00
00
00
00
00
00
00
00
00
00
78
ENDCHAR
STARTCHAR CombLtilde
ENCODING 2187
SWIDTH 960 0
DWIDTH 8 0
BBX 8 15 0 -3
BITMAP
00
00
00
00
00
00
00
00
00
00
00
00
00
48
b0
ENDCHAR
STARTCHAR MArrowU
ENCODING 2475
SWIDTH 960 0
DWIDTH 8 0
BBX 8 15 0 -3
BITMAP
00
08
1c
2a
08
08
08
08
08
08
08
08
08
08
00
ENDCHAR
STARTCHAR MArrowD
ENCODING 2476
SWIDTH 960 0
DWIDTH 8 0
BBX 8 15 0 -3
BITMAP
00
08
08
08
08
08
08
08
08
08
08
2a
1c
08
00
ENDCHAR
STARTCHAR MArrowUD
ENCODING 2477
SWIDTH 960 0
DWIDTH 8 0
BBX 8 15 0 -3
BITMAP
00
08
1c
2a
08
08
08
08
08
08
08
2a
1c
08
00
ENDCHAR
STARTCHAR MArrowUDBase
ENCODING 2478
SWIDTH 960 0
DWIDTH 8 0
BBX 8 15 0 -3
BITMAP
00
08
1c
2a
08
08
08
08
08
08
2a
1c
08
3e
00
ENDCHAR
STARTCHAR MArrowULeftD
ENCODING 2479
SWIDTH 960 0
DWIDTH 8 0
BBX 8 15 0 -3
BITMAP
00
24
74
a4
24
24
24
24
24
24
24
25
2e
24
00
ENDCHAR
STARTCHAR MArrowULeftU
ENCODING 2480
SWIDTH 960 0
DWIDTH 8 0
BBX 8 15 0 -3
BITMAP
00
24
7e
a5
24
24
24
24
24
24
24
24
24
24
00
ENDCHAR
STARTCHAR MArrowDLeftD
ENCODING 2481
SWIDTH 960 0
DWIDTH 8 0
BBX 8 15 0 -3
BITMAP
00
24
24
24
24
24
24
24
24
24
24
a5
7e
24
00
ENDCHAR
STARTCHAR MArrowUu
ENCODING 2482
SWIDTH 960 0
DWIDTH 8 0
BBX 8 15 0 -3
BITMAP
00
08
1c
2a
08
1c
2a
08
08
08
08
08
08
08
00
ENDCHAR
STARTCHAR MArrowDd
ENCODING 2483
SWIDTH 960 0
DWIDTH 8 0
BBX 8 15 0 -3
BITMAP
00
08
08
08
08
08
08
08
2a
1c
08
2a
1c
08
00
ENDCHAR
STARTCHAR MArrowBarU
ENCODING 2484
SWIDTH 960 0
DWIDTH 8 0
BBX 8 15 0 -3
BITMAP
00
08
1c
2a
08
08
08
08
08
08
08
08
08
3e
00
ENDCHAR
STARTCHAR MArrowBarD
ENCODING 2485
SWIDTH 960 0
DWIDTH 8 0
BBX 8 15 0 -3
BITMAP
00
3e
08
08
08
08
08
08
08
08
08
2a
1c
08
00
ENDCHAR
STARTCHAR MArrowLU
ENCODING 2488
SWIDTH 960 0
DWIDTH 8 0
BBX 8 15 0 -3
BITMAP
00
40
70
68
50
50
08
08
04
04
02
02
01
01
00
ENDCHAR
STARTCHAR MArrowRU
ENCODING 2489
SWIDTH 960 0
DWIDTH 8 0
BBX 8 15 0 -3
BITMAP
00
01
07
0b
05
05
08
08
10
10
20
20
40
40
00
ENDCHAR
STARTCHAR MArrowLD
ENCODING 2490
SWIDTH 960 0
DWIDTH 8 0
BBX 8 15 0 -3
BITMAP
00
01
01
02
02
04
04
08
08
50
50
68
70
40
00
ENDCHAR
STARTCHAR MArrowRD
ENCODING 2491
SWIDTH 960 0
DWIDTH 8 0
BBX 8 15 0 -3
BITMAP
00
40
40
20
20
10
10
08
08
05
05
0b
07
01
00
ENDCHAR
STARTCHAR MArrow2U
ENCODING 2500
SWIDTH 960 0
DWIDTH 8 0
BBX 8 15 0 -3
BITMAP
00
08
1c
36
55
14
14
14
14
14
14
14
14
14
00
ENDCHAR
STARTCHAR MArrow2D
ENCODING 2501
SWIDTH 960 0
DWIDTH 8 0
BBX 8 15 0 -3
BITMAP
00
14
14
14
14
14
14
14
14
14
55
36
1c
08
00
ENDCHAR
STARTCHAR MArrow2UD
ENCODING 2502
SWIDTH 960 0
DWIDTH 8 0
BBX 8 15 0 -3
BITMAP
00
08
1c
36
55
14
14
14
14
14
55
36
1c
08
00
ENDCHAR
STARTCHAR MHarpoonUl
ENCODING 2518
SWIDTH 960 0
DWIDTH 8 0
BBX 8 15 0 -3
BITMAP
00
08
18
28
08
08
08
08
08
08
08
08
08
08
00
ENDCHAR
STARTCHAR MHarpoonUr
ENCODING 2519
SWIDTH 960 0
DWIDTH 8 0
BBX 8 15 0 -3
BITMAP
00
08
0c
0a
08
08
08
08
08
08
08
08
08
08
00
ENDCHAR
STARTCHAR MHarpoonDl
ENCODING 2520
SWIDTH 960 0
DWIDTH 8 0
BBX 8 15 0 -3
BITMAP
00
08
08
08
08
08
08
08
08
08
08
28
18
08
00
ENDCHAR
STARTCHAR MHarpoonDr
ENCODING 2521
SWIDTH 960 0
DWIDTH 8 0
BBX 8 15 0 -3
BITMAP
00
08
08
08
08
08
08
08
08
08
08
0a
0c
08
00
ENDCHAR
STARTCHAR PCurlyBrackLTRB
ENCODING 2649
SWIDTH 960 0
DWIDTH 8 0
BBX 8 15 0 -3
BITMAP
03
04
08
08
08
08
08
08
08
08
08
08
08
10
60
ENDCHAR
STARTCHAR PCurlyBrackLBRT
ENCODING 2650
SWIDTH 960 0
DWIDTH 8 0
BBX 8 15 0 -3
BITMAP
60
10
08
08
08
08
08
08
08
08
08
08
08
04
03
ENDCHAR
STARTCHAR MSumT
ENCODING 2651
SWIDTH 960 0
DWIDTH 8 0
BBX 8 15 0 -3
BITMAP
00
7f
40
40
20
20
20
10
10
10
08
08
08
04
04
ENDCHAR
STARTCHAR MRootB
ENCODING 2653
SWIDTH 960 0
DWIDTH 8 0
BBX 8 15 0 -3
BITMAP
08
08
08
08
08
08
08
c8
48
28
28
18
18
08
08
ENDCHAR
ENDFONT
